<?xml version="1.0" encoding="UTF-8" standalone="no"?><svg xmlns="http://www.w3.org/2000/svg" xmlns:xlink="http://www.w3.org/1999/xlink" contentScriptType="application/ecmascript" contentStyleType="text/css" height="224px" preserveAspectRatio="none" style="width:721px;height:224px;" version="1.1" viewBox="0 0 721 224" width="721px" zoomAndPan="magnify"><defs/><g><text fill="#000000" font-family="sans-serif" font-size="12" lengthAdjust="spacingAndGlyphs" textLength="196" x="26" y="19.752">/drivers/gpu/drm/imx/imx-drm-core.c</text><text fill="#000000" font-family="sans-serif" font-size="12" lengthAdjust="spacingAndGlyphs" textLength="220" x="46" y="36.1406">module_platform_driver(imx_drm_pdrv);</text><text fill="#000000" font-family="sans-serif" font-size="12" lengthAdjust="spacingAndGlyphs" textLength="190" x="66" y="52.5293">.probe = imx_drm_platform_probe,</text><text fill="#000000" font-family="sans-serif" font-size="12" lengthAdjust="spacingAndGlyphs" textLength="349" x="86" y="68.918">static int imx_drm_platform_probe(struct platform_device *pdev)</text><text fill="#000000" font-family="sans-serif" font-size="12" lengthAdjust="spacingAndGlyphs" textLength="521" x="106" y="85.3066">ret = drm_of_component_probe_with_match(&amp;pdev-&gt;dev, match, compare_of, &amp;imx_drm_ops);</text><text fill="#000000" font-family="sans-serif" font-size="12" lengthAdjust="spacingAndGlyphs" textLength="122" x="126" y="101.6953">.bind = imx_drm_bind,</text><text fill="#000000" font-family="sans-serif" font-size="12" lengthAdjust="spacingAndGlyphs" textLength="198" x="146" y="118.084">ret = component_bind_all(dev, drm);</text><text fill="#000000" font-family="sans-serif" font-size="12" lengthAdjust="spacingAndGlyphs" textLength="212" x="166" y="134.4727">ret = component_bind(c, master, data);</text><text fill="#000000" font-family="sans-serif" font-size="12" lengthAdjust="spacingAndGlyphs" textLength="414" x="146" y="150.8613">imxdrm-&gt;fbhelper = drm_fbdev_cma_init(drm, legacyfb_depth, MAX_CRTC);</text><text fill="#000000" font-family="sans-serif" font-size="12" lengthAdjust="spacingAndGlyphs" textLength="548" x="166" y="167.25">return drm_fbdev_cma_init_with_funcs(dev, preferred_bpp, max_conn_count, &amp;drm_fb_cma_funcs);</text><text fill="#000000" font-family="sans-serif" font-size="12" lengthAdjust="spacingAndGlyphs" textLength="314" x="186" y="183.6387">ret = drm_fb_helper_initial_config(helper, preferred_bpp);</text><text fill="#000000" font-family="sans-serif" font-size="12" lengthAdjust="spacingAndGlyphs" textLength="383" x="206" y="200.0273">ret = __drm_fb_helper_initial_config_and_unlock(fb_helper, bpp_sel);</text><text fill="#000000" font-family="sans-serif" font-size="12" lengthAdjust="spacingAndGlyphs" textLength="170" x="226" y="216.416">ret = register_framebuffer(info);</text><rect fill="none" height="2" style="stroke: #888888; stroke-width: 1.0;" width="2" x="19" y="13.1943"/><rect fill="none" height="2" style="stroke: #888888; stroke-width: 1.0;" width="2" x="39" y="29.583"/><line style="stroke: #888888; stroke-width: 1.0;" x1="20" x2="20" y1="16.1943" y2="30.583"/><line style="stroke: #888888; stroke-width: 1.0;" x1="20" x2="38" y1="30.583" y2="30.583"/><rect fill="none" height="2" style="stroke: #888888; stroke-width: 1.0;" width="2" x="59" y="45.9717"/><line style="stroke: #888888; stroke-width: 1.0;" x1="40" x2="40" y1="32.583" y2="46.9717"/><line style="stroke: #888888; stroke-width: 1.0;" x1="40" x2="58" y1="46.9717" y2="46.9717"/><rect fill="none" height="2" style="stroke: #888888; stroke-width: 1.0;" width="2" x="79" y="62.3604"/><line style="stroke: #888888; stroke-width: 1.0;" x1="60" x2="60" y1="48.9717" y2="63.3604"/><line style="stroke: #888888; stroke-width: 1.0;" x1="60" x2="78" y1="63.3604" y2="63.3604"/><rect fill="none" height="2" style="stroke: #888888; stroke-width: 1.0;" width="2" x="99" y="78.749"/><line style="stroke: #888888; stroke-width: 1.0;" x1="80" x2="80" y1="65.3604" y2="79.749"/><line style="stroke: #888888; stroke-width: 1.0;" x1="80" x2="98" y1="79.749" y2="79.749"/><rect fill="none" height="2" style="stroke: #888888; stroke-width: 1.0;" width="2" x="119" y="95.1377"/><line style="stroke: #888888; stroke-width: 1.0;" x1="100" x2="100" y1="81.749" y2="96.1377"/><line style="stroke: #888888; stroke-width: 1.0;" x1="100" x2="118" y1="96.1377" y2="96.1377"/><rect fill="none" height="2" style="stroke: #888888; stroke-width: 1.0;" width="2" x="139" y="111.5264"/><line style="stroke: #888888; stroke-width: 1.0;" x1="120" x2="120" y1="98.1377" y2="112.5264"/><line style="stroke: #888888; stroke-width: 1.0;" x1="120" x2="138" y1="112.5264" y2="112.5264"/><line style="stroke: #888888; stroke-width: 1.0;" x1="140" x2="140" y1="114.5264" y2="128.915"/><line style="stroke: #888888; stroke-width: 1.0;" x1="140" x2="158" y1="128.915" y2="128.915"/><rect fill="none" height="2" style="stroke: #888888; stroke-width: 1.0;" width="2" x="139" y="144.3037"/><line style="stroke: #888888; stroke-width: 1.0;" x1="120" x2="120" y1="98.1377" y2="145.3037"/><line style="stroke: #888888; stroke-width: 1.0;" x1="120" x2="138" y1="145.3037" y2="145.3037"/><rect fill="none" height="2" style="stroke: #888888; stroke-width: 1.0;" width="2" x="159" y="160.6924"/><line style="stroke: #888888; stroke-width: 1.0;" x1="140" x2="140" y1="147.3037" y2="161.6924"/><line style="stroke: #888888; stroke-width: 1.0;" x1="140" x2="158" y1="161.6924" y2="161.6924"/><rect fill="none" height="2" style="stroke: #888888; stroke-width: 1.0;" width="2" x="179" y="177.0811"/><line style="stroke: #888888; stroke-width: 1.0;" x1="160" x2="160" y1="163.6924" y2="178.0811"/><line style="stroke: #888888; stroke-width: 1.0;" x1="160" x2="178" y1="178.0811" y2="178.0811"/><rect fill="none" height="2" style="stroke: #888888; stroke-width: 1.0;" width="2" x="199" y="193.4697"/><line style="stroke: #888888; stroke-width: 1.0;" x1="180" x2="180" y1="180.0811" y2="194.4697"/><line style="stroke: #888888; stroke-width: 1.0;" x1="180" x2="198" y1="194.4697" y2="194.4697"/><line style="stroke: #888888; stroke-width: 1.0;" x1="200" x2="200" y1="196.4697" y2="210.8584"/><line style="stroke: #888888; stroke-width: 1.0;" x1="200" x2="218" y1="210.8584" y2="210.8584"/></g></svg>